<svg xmlns="http://www.w3.org/2000/svg" viewBox="0 0 85 99.11"><defs><style>.cls-1{fill:#b0b0b6;}</style></defs><g id="레이어_2" data-name="레이어 2"><g id="레이어_1-2" data-name="레이어 1"><path class="cls-1" d="M57.55,77.06V55.26c-12.41.11-22.44,9.88-22.44,21.92S45.26,99.11,57.77,99.11s22.66-9.82,22.66-21.93c0,0,0-.08,0-.12Z"/><path class="cls-1" d="M62.13,50.83v21.8H85c-.07-12.06-10.18-21.81-22.65-21.81Z"/><path class="cls-1" d="M33.55,86.68,33.32,86H7V6.72H37.19v21.1a7.81,7.81,0,0,0,2.6,5.82A9,9,0,0,0,45.87,36H67.94V48.24l.81.16a26.84,26.84,0,0,1,4.77,1.4l1.38.55V31L41.36.27,41.07,0H6.94A6.84,6.84,0,0,0,0,6.72V86a6.84,6.84,0,0,0,6.94,6.71h29.7l-.88-1.45A25.45,25.45,0,0,1,33.55,86.68ZM44.14,27.83V12.08L62.86,29.24h-17a1.87,1.87,0,0,1-1.29-.48A1.24,1.24,0,0,1,44.14,27.83Z"/></g></g></svg>