<svg xmlns="http://www.w3.org/2000/svg" viewBox="0 0 85 103"><defs><style>.cls-1{fill:#b0b0b6;}</style></defs><g id="레이어_2" data-name="레이어 2"><g id="레이어_1-2" data-name="레이어 1"><path class="cls-1" d="M57.55,80.08V57.43A22.79,22.79,0,1,0,80.43,80.21s0-.09,0-.13Z"/><path class="cls-1" d="M62.13,52.82V75.47H85A22.72,22.72,0,0,0,62.35,52.81Z"/><path class="cls-1" d="M33.55,90.08l-.23-.67H7V7H37.19V28.92a8.26,8.26,0,0,0,2.6,6,8.8,8.8,0,0,0,6.08,2.41H67.94V50.14l.81.16a26.2,26.2,0,0,1,4.77,1.45l1.38.57V32.23L41.36.28,41.07,0H6.94A7,7,0,0,0,0,7V89.41a7,7,0,0,0,6.94,7h29.7l-.88-1.51A26.77,26.77,0,0,1,33.55,90.08ZM44.14,28.92V12.55L62.86,30.38h-17a1.83,1.83,0,0,1-1.29-.49A1.33,1.33,0,0,1,44.14,28.92Z"/></g></g></svg>